<svg width="50" height="50" version="1.1" xmlns="http://www.w3.org/2000/svg" desc="Created with imagetracer.js version 1.2.6" ><path fill="rgb(0,0,0)" stroke="rgb(0,0,0)" stroke-width="1" opacity="0" d="M 0 0 L 50 0 L 50 50 L 32 49.5 L 34 39 Q 41.3 39.6 44 34.5 Q 45.8 27.8 42.5 26 L 36 25 L 37 18 L 9.5 18 Q 8.5 18 9 22.5 L 11 27.5 L 13 48.5 L 14 49.5 L 0 50 L 0 0 Z M 24 1 L 17 11 Q 15 16 19 15 L 25 6 Q 27 0 24 1 Z M 29 6 L 24 13 Q 22 17 26 16 L 30 10 Q 31 5 29 6 Z " /><path fill="rgb(0,0,0)" stroke="rgb(0,0,0)" stroke-width="1" opacity="0" d="M 12 20 L 33.5 20 L 34 21.5 L 31 33.5 L 30 48 L 16 48 L 16 41.5 L 12 20 Z " /><path fill="rgb(0,0,0)" stroke="rgb(0,0,0)" stroke-width="1" opacity="0" d="M 35 27 L 41 29.5 Q 42 34 39.5 35 L 34 36 L 35 27 Z " /><path fill="rgb(0,0,0)" stroke="rgb(0,0,0)" stroke-width="1" opacity="0.36470588235294116" d="M 13.5 28 L 14 30.5 L 13 30.5 L 13.5 28 Z " /><path fill="rgb(0,0,0)" stroke="rgb(0,0,0)" stroke-width="1" opacity="0.36470588235294116" d="M 32.5 28 L 33 30.5 L 32 30.5 L 32.5 28 Z " /><path fill="rgb(0,0,0)" stroke="rgb(0,0,0)" stroke-width="1" opacity="0.36470588235294116" d="M 14.5 34 L 15 37.5 L 14 37.5 L 14.5 34 Z " /><path fill="rgb(0,0,0)" stroke="rgb(0,0,0)" stroke-width="1" opacity="0.36470588235294116" d="M 31.5 34 L 32 36.5 L 31 36.5 L 31.5 34 Z " /><path fill="rgb(0,0,0)" stroke="rgb(0,0,0)" stroke-width="1" opacity="0.36470588235294116" d="M 12.5 35 L 13 38.5 L 12 38.5 L 12.5 35 Z " /><path fill="rgb(0,0,0)" stroke="rgb(0,0,0)" stroke-width="1" opacity="0.36470588235294116" d="M 42.5 35 L 41.5 37 L 42.5 35 Z " /><path fill="rgb(0,0,0)" stroke="rgb(0,0,0)" stroke-width="1" opacity="0.36470588235294116" d="M 33.5 36 L 36 36.5 L 33.5 37 L 33.5 36 Z " /><path fill="rgb(0,0,0)" stroke="rgb(0,0,0)" stroke-width="1" opacity="0.36470588235294116" d="M 15.5 43 L 16 46.5 L 15 46.5 L 15.5 43 Z " /><path fill="rgb(0,0,0)" stroke="rgb(0,0,0)" stroke-width="1" opacity="0.36470588235294116" d="M 30.5 43 L 31 46.5 L 30 46.5 L 30.5 43 Z " /><path fill="rgb(0,0,0)" stroke="rgb(0,0,0)" stroke-width="1" opacity="0.36470588235294116" d="M 13.5 45 L 14 47.5 L 13 47.5 L 13.5 45 Z " /><path fill="rgb(0,0,0)" stroke="rgb(0,0,0)" stroke-width="1" opacity="0.36470588235294116" d="M 32.5 45 L 33 47.5 L 32 47.5 L 32.5 45 Z " /><path fill="rgb(0,0,0)" stroke="rgb(0,0,0)" stroke-width="1" opacity="0.9254901960784314" d="M 23 1 Q 26 -0.3 25 3.5 Q 23.7 9.3 19 11.5 L 19 15 Q 16 16.3 17 12.5 L 23 4.5 L 23 1 Z " /><path fill="rgb(0,0,0)" stroke="rgb(0,0,0)" stroke-width="1" opacity="0.9254901960784314" d="M 28 6 Q 31 4.8 30 8.5 L 26 13.5 L 26 16 Q 23 17.3 24 13.5 L 28 8.5 L 28 6 Z " /><path fill="rgb(0,0,0)" stroke="rgb(0,0,0)" stroke-width="1" opacity="0.9254901960784314" d="M 9 18 L 36.5 18 L 37 19.5 L 35 24.5 L 43 27.5 L 44 32.5 L 40.5 37 L 33 39 Q 33.9 46.1 30.5 50 L 15.5 50 L 14 48.5 L 12 29.5 L 9 18 Z M 12 20 L 14 32 L 15 47 L 17 48 L 30 48 L 31 47 L 31 38 L 35 21 L 12 20 Z M 35 27 Q 33 29 34 36 L 34 37 L 41 35 L 42 30 Q 41 26 35 27 Z " /><path fill="rgb(0,0,0)" stroke="rgb(0,0,0)" stroke-width="1" opacity="0.07450980392156863" d="M 21.5 5 L 18.5 9 L 21.5 5 Z " /><path fill="rgb(0,0,0)" stroke="rgb(0,0,0)" stroke-width="1" opacity="0.07450980392156863" d="M 23.5 7 L 20.5 11 L 23.5 7 Z " /><path fill="rgb(0,0,0)" stroke="rgb(0,0,0)" stroke-width="1" opacity="0.07450980392156863" d="M 26.5 9 L 25.5 11 L 26.5 9 Z " /><path fill="rgb(0,0,0)" stroke="rgb(0,0,0)" stroke-width="1" opacity="0.07450980392156863" d="M 28.5 11 L 27.5 13 L 28.5 11 Z " /><path fill="rgb(0,0,0)" stroke="rgb(0,0,0)" stroke-width="1" opacity="0.07450980392156863" d="M 42.5 26 L 43.5 28 L 42.5 26 Z " /></svg>